<?xml version="1.0" encoding="UTF-8"?>
<svg id="Layer_2" data-name="Layer 2" xmlns="http://www.w3.org/2000/svg" viewBox="0 0 85.2 22">
  <defs>
    <style>
      .cls-1, .cls-2 {
        fill: #fff;
      }

      .cls-2 {
        fill-rule: evenodd;
      }
    </style>
  </defs>
  <g id="Layer_1-2" data-name="Layer 1">
    <g>
      <path class="cls-2" d="M15.82,10.4L14.53,0h-4.27l1.28,10.4-1.28,10.26h4.27l1.28-10.26h0Zm-5.27,9.83h.04v.06s-.04-.06-.04-.06h0ZM10.54,.43l.02-.02v.02s-.02,0-.02,0h0Zm.14,9.97l-1.28,10.26H5.13l1.28-10.26L5.13,0h4.27l1.28,10.4h0Zm-5.24,9.83h-.04l.03,.06v-.06h0Zm-.02-19.81v-.02s-.02,.02-.02,.02h.02Zm.12,9.97L4.27,0H0L1.28,10.4,0,20.66H4.27l1.28-10.26h0ZM.32,20.23v.06s-.04-.06-.04-.06h.04ZM.3,.43h-.02l.02-.02v.02Z"/>
      <path class="cls-2" d="M46.41,20.09s-.01-.08-.02-.11c0-.03-.02-.05-.03-.06-.01-.01-.03-.02-.05-.02-.03,0-.06,.02-.1,.05-.04,.03-.09,.07-.15,.11-.06,.04-.13,.08-.21,.11-.08,.03-.18,.05-.29,.05s-.21-.02-.29-.06-.15-.1-.21-.18c-.05-.08-.1-.18-.12-.3-.03-.12-.04-.25-.04-.41,0-.31,.06-.55,.17-.71,.11-.16,.27-.24,.48-.24,.11,0,.2,.02,.28,.05,.08,.03,.14,.06,.2,.1,.06,.04,.1,.07,.14,.1,.04,.03,.08,.04,.12,.04,.03,0,.06-.03,.08-.08,.02-.05,.03-.14,.03-.26,0-.05,0-.1,0-.14,0-.04,0-.07-.01-.09,0-.03-.01-.05-.02-.06,0-.02-.03-.04-.05-.06-.02-.02-.06-.05-.12-.08-.06-.03-.12-.06-.19-.09-.07-.03-.15-.05-.23-.06-.08-.02-.17-.02-.25-.02-.21,0-.4,.03-.58,.1-.18,.07-.33,.17-.46,.31-.13,.14-.23,.31-.3,.52-.07,.21-.11,.46-.11,.74,0,.25,.03,.47,.09,.66,.06,.19,.15,.36,.26,.49,.12,.13,.26,.24,.43,.3,.17,.07,.37,.1,.59,.1,.1,0,.19,0,.29-.03,.09-.02,.18-.04,.26-.07,.08-.03,.15-.06,.21-.09,.06-.04,.11-.07,.13-.09,.03-.02,.04-.05,.05-.06,0-.02,.01-.04,.02-.06,0-.03,0-.06,.01-.09,0-.04,0-.08,0-.14,0-.07,0-.13,0-.17h0Zm3.37-1.51c-.06-.2-.15-.36-.27-.5-.12-.14-.28-.24-.47-.31-.19-.07-.41-.11-.67-.11s-.49,.04-.69,.12c-.2,.08-.36,.19-.49,.34-.13,.14-.23,.32-.29,.52-.07,.2-.1,.43-.1,.67s.03,.48,.09,.68c.06,.2,.15,.36,.28,.5,.12,.13,.28,.24,.47,.31,.19,.07,.41,.11,.67,.11s.49-.04,.69-.12c.2-.08,.36-.19,.49-.34,.13-.15,.23-.32,.29-.52,.06-.2,.1-.42,.1-.67s-.03-.48-.09-.68h0Zm-.78,1.12c-.03,.12-.07,.22-.13,.3-.06,.08-.13,.15-.22,.19-.09,.04-.2,.07-.32,.07-.13,0-.24-.02-.33-.07-.09-.05-.16-.12-.21-.2-.05-.09-.09-.19-.11-.31-.02-.12-.04-.25-.04-.39,0-.15,.01-.29,.04-.41,.03-.12,.07-.22,.13-.31,.06-.09,.13-.15,.22-.19,.09-.04,.2-.07,.32-.07,.13,0,.25,.03,.34,.07,.09,.05,.16,.12,.21,.21,.05,.09,.09,.19,.11,.31,.02,.12,.03,.25,.03,.39,0,.15-.01,.29-.04,.41h0Zm4.25-.75c0-.21-.02-.39-.05-.53-.04-.15-.1-.28-.18-.39-.08-.11-.19-.2-.33-.26-.13-.06-.3-.1-.49-.1-.18,0-.35,.04-.51,.13-.16,.09-.33,.21-.48,.39v-.33s0-.04-.02-.06c-.01-.02-.03-.03-.05-.04-.03-.01-.06-.02-.11-.02-.04,0-.1,0-.17,0s-.12,0-.17,0c-.04,0-.08,.01-.11,.02-.03,.01-.05,.02-.06,.04-.01,.02-.02,.04-.02,.06v2.87s0,.04,.02,.06c.01,.02,.04,.03,.07,.04,.03,.01,.07,.02,.12,.02,.05,0,.12,0,.2,0s.14,0,.2,0c.05,0,.09-.01,.12-.02,.03-.01,.05-.02,.07-.04,.01-.02,.02-.03,.02-.06v-1.91c.11-.14,.22-.25,.33-.33,.1-.08,.21-.11,.31-.11,.08,0,.15,.01,.21,.05,.06,.03,.11,.07,.15,.13,.04,.06,.07,.13,.09,.2,.02,.08,.03,.19,.03,.33v1.64s0,.04,.02,.06c.01,.02,.03,.03,.06,.04,.03,.01,.07,.02,.12,.02,.05,0,.12,0,.2,0s.14,0,.19,0c.05,0,.09-.01,.12-.02,.03-.01,.05-.02,.06-.04,.01-.02,.02-.03,.02-.06v-1.77h0Zm2.42,1.34s-.01-.07-.02-.09c0-.02-.02-.04-.03-.04-.01,0-.02-.01-.04-.01-.02,0-.03,0-.05,.01-.02,0-.04,.02-.07,.03-.03,0-.06,.02-.09,.03-.03,0-.07,.01-.12,.01-.13,0-.21-.04-.26-.12-.05-.08-.07-.2-.07-.35v-1.35h.63s.07-.03,.09-.08c.02-.05,.03-.13,.03-.25,0-.06,0-.11,0-.16,0-.04-.01-.08-.02-.1-.01-.02-.02-.04-.04-.05-.02-.01-.03-.02-.06-.02h-.62v-.64s0-.04-.02-.06c-.01-.02-.03-.03-.06-.04-.03-.01-.07-.02-.12-.03-.05,0-.12,0-.2,0s-.14,0-.19,0c-.05,0-.09,.01-.13,.03-.03,.01-.05,.03-.06,.04-.01,.02-.02,.04-.02,.06v.64h-.34s-.04,0-.06,.02c-.02,.01-.03,.03-.04,.05-.01,.02-.02,.06-.02,.1,0,.04,0,.09,0,.16,0,.12,.01,.2,.03,.25,.02,.05,.05,.08,.09,.08h.34v1.47c0,.18,.02,.33,.05,.46,.04,.13,.09,.24,.17,.32,.08,.08,.17,.15,.29,.19,.12,.04,.26,.06,.42,.06,.06,0,.12,0,.18-.01,.06,0,.11-.02,.16-.03,.05-.01,.09-.03,.13-.04,.04-.02,.07-.03,.09-.05,.02-.02,.03-.06,.05-.11,.01-.05,.02-.12,.02-.22,0-.06,0-.11,0-.15h0Zm2.43-2.35s0-.08,0-.1c0-.02,0-.04-.01-.05,0-.01-.01-.02-.03-.04-.01-.01-.03-.02-.06-.03-.03,0-.06-.02-.09-.03-.03,0-.07-.01-.1-.02-.03,0-.06,0-.09,0-.06,0-.12,0-.18,.02-.06,.02-.12,.04-.18,.08-.06,.04-.12,.1-.19,.17-.07,.07-.14,.16-.21,.27v-.36s0-.04-.02-.06c-.01-.02-.03-.03-.05-.04-.02-.01-.06-.02-.1-.02-.04,0-.1,0-.17,0s-.12,0-.17,0c-.04,0-.08,.01-.11,.02-.03,.01-.05,.02-.06,.04-.01,.02-.02,.04-.02,.06v2.87s0,.04,.02,.06c.01,.02,.03,.03,.07,.04,.03,.01,.07,.02,.12,.02,.05,0,.12,0,.2,0s.14,0,.2,0c.05,0,.09-.01,.12-.02,.03-.01,.05-.02,.07-.04,.01-.02,.02-.03,.02-.06v-1.79c.06-.09,.12-.17,.17-.24,.05-.06,.1-.12,.15-.15,.05-.04,.09-.07,.14-.08,.05-.02,.09-.03,.14-.03,.04,0,.07,0,.11,.01,.03,0,.06,.02,.09,.02,.03,0,.05,.02,.07,.02,.02,0,.04,.01,.06,.01,.02,0,.04,0,.05-.02,.01-.01,.03-.03,.03-.06,0-.03,.02-.07,.02-.12,0-.05,0-.11,0-.19s0-.14,0-.18h0Zm3.23,.64c-.06-.2-.15-.36-.27-.5-.12-.14-.28-.24-.47-.31-.19-.07-.41-.11-.67-.11s-.49,.04-.69,.12c-.2,.08-.36,.19-.49,.34-.13,.14-.23,.32-.29,.52-.07,.2-.1,.43-.1,.67s.03,.48,.09,.68c.06,.2,.15,.36,.28,.5,.12,.13,.28,.24,.47,.31,.19,.07,.41,.11,.67,.11s.49-.04,.69-.12c.2-.08,.36-.19,.49-.34,.13-.15,.23-.32,.29-.52,.06-.2,.1-.42,.1-.67s-.03-.48-.09-.68h0Zm-.78,1.12c-.03,.12-.07,.22-.13,.3-.06,.08-.13,.15-.22,.19-.09,.04-.2,.07-.32,.07-.13,0-.24-.02-.33-.07-.09-.05-.16-.12-.21-.2-.05-.09-.09-.19-.11-.31-.02-.12-.04-.25-.04-.39,0-.15,.01-.29,.04-.41,.03-.12,.07-.22,.13-.31,.06-.09,.13-.15,.22-.19,.09-.04,.19-.07,.32-.07,.13,0,.25,.03,.34,.07,.09,.05,.16,.12,.21,.21,.05,.09,.09,.19,.11,.31,.02,.12,.03,.25,.03,.39,0,.15-.01,.29-.04,.41h0Zm2.33-3.2s0-.04-.02-.06c-.01-.02-.03-.03-.07-.04-.03-.01-.07-.02-.12-.03-.05,0-.12,0-.2,0s-.14,0-.2,0c-.05,0-.09,.02-.12,.03-.03,.01-.05,.03-.07,.04-.01,.02-.02,.04-.02,.06v4.23s0,.04,.02,.06c.01,.02,.04,.03,.07,.04,.03,.01,.07,.02,.12,.02,.05,0,.12,0,.2,0s.14,0,.2,0c.05,0,.09-.01,.12-.02,.03-.01,.05-.02,.07-.04,.01-.02,.02-.03,.02-.06v-4.23h0Zm4.94,2.58c0-.2-.03-.39-.08-.56-.05-.17-.13-.32-.24-.45-.11-.13-.25-.22-.42-.29-.17-.07-.38-.11-.62-.11s-.43,.04-.61,.11c-.18,.08-.33,.18-.46,.33-.13,.14-.22,.32-.29,.52-.07,.2-.1,.43-.1,.69,0,.27,.03,.5,.09,.7,.06,.2,.16,.36,.29,.49,.13,.13,.29,.23,.48,.29,.19,.06,.42,.1,.67,.1,.14,0,.27,0,.4-.03,.12-.02,.23-.04,.33-.06,.1-.02,.18-.05,.24-.08,.06-.03,.1-.05,.11-.06,.01-.02,.03-.03,.03-.05,0-.02,.01-.04,.02-.06,0-.02,0-.05,.01-.09,0-.03,0-.07,0-.12,0-.05,0-.1,0-.13,0-.04,0-.06-.02-.08,0-.02-.02-.03-.03-.04-.01,0-.03-.01-.05-.01-.03,0-.07,.01-.13,.03-.05,.02-.12,.04-.19,.07-.08,.02-.17,.05-.28,.07-.11,.02-.23,.03-.37,.03s-.26-.02-.36-.05c-.1-.04-.18-.09-.24-.16-.06-.07-.11-.15-.14-.25-.03-.1-.04-.21-.04-.33h1.75c.08,0,.14-.02,.18-.07,.04-.05,.07-.12,.07-.22v-.13h0Zm-1.99-.1c0-.1,.02-.2,.05-.28,.03-.09,.07-.17,.12-.23,.05-.07,.11-.12,.19-.16,.08-.04,.17-.06,.27-.06,.2,0,.35,.06,.45,.19,.1,.13,.14,.31,.14,.54h-1.21Zm4.26,.26l.71-1.3s.04-.08,.04-.1c0-.03-.01-.05-.04-.06-.02-.01-.07-.02-.12-.03-.06,0-.13,0-.23,0-.08,0-.15,0-.2,0-.05,0-.09,.01-.11,.02-.03,0-.05,.02-.06,.03-.01,.01-.02,.03-.03,.05l-.51,.96-.51-.96s-.02-.04-.04-.05c-.02-.01-.04-.02-.07-.03-.03,0-.08-.01-.13-.01-.06,0-.13,0-.23,0-.1,0-.19,0-.25,.01-.06,0-.11,.02-.13,.03-.03,.01-.04,.04-.04,.06,0,.03,.01,.06,.03,.1l.73,1.32-.79,1.41s-.03,.07-.03,.09c0,.02,.01,.04,.04,.06,.03,.02,.07,.03,.12,.03,.06,0,.13,0,.23,0s.16,0,.22,0c.06,0,.1-.01,.13-.02,.03,0,.05-.02,.07-.04,.01-.01,.03-.03,.04-.05l.53-1.02,.53,1.02s.02,.04,.04,.05c.02,.01,.04,.03,.07,.04,.03,0,.08,.02,.14,.02,.06,0,.14,0,.23,0,.1,0,.19,0,.25,0,.06,0,.11-.01,.14-.03,.03-.02,.05-.03,.05-.06,0-.02,0-.05-.02-.09l-.79-1.43h0Zm4.14-.59c-.04-.19-.11-.36-.2-.5-.09-.14-.21-.26-.36-.34-.15-.08-.33-.12-.54-.12-.1,0-.2,.01-.28,.03-.09,.02-.18,.05-.26,.1-.08,.04-.17,.1-.25,.16-.08,.07-.16,.14-.25,.23v-.34s0-.04-.02-.06c-.01-.02-.03-.03-.06-.04-.03-.01-.06-.02-.11-.02-.04,0-.1,0-.16,0s-.12,0-.17,0c-.04,0-.08,.01-.11,.02-.03,.01-.05,.02-.06,.04-.01,.02-.02,.04-.02,.06v4.01s0,.04,.02,.06c.01,.02,.03,.03,.07,.04,.03,.01,.07,.02,.12,.03,.05,0,.12,0,.2,0s.14,0,.2,0c.05,0,.09-.02,.12-.03,.03-.01,.05-.03,.07-.04,.01-.02,.02-.04,.02-.06v-1.35c.07,.07,.14,.12,.2,.17,.06,.05,.13,.09,.19,.12,.06,.03,.13,.06,.2,.07,.07,.02,.15,.02,.23,.02,.2,0,.38-.04,.54-.12,.16-.08,.29-.19,.39-.33,.11-.14,.19-.32,.24-.52,.05-.2,.08-.43,.08-.69,0-.22-.02-.42-.06-.61h0Zm-.81,1c-.02,.11-.06,.21-.1,.29-.05,.09-.11,.16-.18,.21-.07,.05-.16,.08-.27,.08-.11,0-.22-.04-.32-.12-.1-.08-.21-.19-.33-.33v-.95c.06-.09,.13-.16,.18-.22,.06-.06,.11-.11,.17-.14,.05-.04,.11-.06,.16-.08,.05-.02,.11-.02,.16-.02,.11,0,.2,.03,.27,.08,.07,.05,.13,.12,.17,.21,.04,.09,.08,.19,.09,.3,.02,.11,.03,.23,.03,.35,0,.11-.01,.22-.03,.33h0Zm4.17-.56c0-.2-.03-.39-.08-.56-.05-.17-.13-.32-.24-.45-.11-.13-.25-.22-.42-.29-.17-.07-.38-.11-.62-.11-.23,0-.43,.04-.61,.11-.18,.08-.34,.18-.46,.33-.13,.14-.22,.32-.29,.52-.07,.2-.1,.43-.1,.69,0,.27,.03,.5,.09,.7,.06,.2,.16,.36,.29,.49,.13,.13,.29,.23,.48,.29,.19,.06,.42,.1,.67,.1,.14,0,.27,0,.4-.03,.12-.02,.24-.04,.33-.06,.1-.02,.18-.05,.24-.08,.06-.03,.1-.05,.11-.06,.01-.02,.03-.03,.03-.05,0-.02,.01-.04,.02-.06,0-.02,0-.05,0-.09,0-.03,0-.07,0-.12,0-.05,0-.1,0-.13,0-.04,0-.06-.02-.08,0-.02-.02-.03-.03-.04-.01,0-.03-.01-.05-.01-.03,0-.07,.01-.13,.03-.05,.02-.12,.04-.19,.07-.08,.02-.17,.05-.28,.07-.11,.02-.23,.03-.37,.03s-.26-.02-.36-.05c-.1-.04-.18-.09-.24-.16-.06-.07-.11-.15-.14-.25-.03-.1-.04-.21-.04-.33h1.75c.08,0,.14-.02,.18-.07s.07-.12,.07-.22v-.13h0Zm-1.99-.1c0-.1,.02-.2,.05-.28,.03-.09,.07-.17,.12-.23,.05-.07,.11-.12,.19-.16,.08-.04,.17-.06,.27-.06,.2,0,.35,.06,.45,.19,.1,.13,.14,.31,.14,.54h-1.21Zm4.5-1.03s0-.08-.01-.1c0-.02,0-.04-.01-.05,0-.01-.01-.02-.03-.04-.01-.01-.03-.02-.06-.03-.03,0-.06-.02-.09-.03-.03,0-.07-.01-.1-.02-.03,0-.06,0-.09,0-.06,0-.12,0-.18,.02-.06,.02-.12,.04-.18,.08-.06,.04-.12,.1-.19,.17-.07,.07-.14,.16-.21,.27v-.36s0-.04-.02-.06c-.01-.02-.03-.03-.05-.04s-.06-.02-.1-.02c-.05,0-.1,0-.17,0s-.12,0-.17,0c-.04,0-.08,.01-.11,.02-.03,.01-.05,.02-.06,.04-.01,.02-.02,.04-.02,.06v2.87s0,.04,.02,.06c.01,.02,.03,.03,.07,.04,.03,.01,.07,.02,.12,.02,.05,0,.12,0,.2,0s.14,0,.2,0c.05,0,.09-.01,.12-.02,.03-.01,.05-.02,.07-.04,.01-.02,.02-.03,.02-.06v-1.79c.06-.09,.12-.17,.17-.24,.05-.06,.1-.12,.15-.15,.05-.04,.09-.07,.14-.08,.04-.02,.09-.03,.14-.03,.04,0,.07,0,.11,.01,.03,0,.06,.02,.09,.02,.03,0,.05,.02,.07,.02,.02,0,.04,.01,.06,.01,.02,0,.04,0,.05-.02,.01-.01,.03-.03,.03-.06,0-.03,.01-.07,.02-.12,0-.05,0-.11,0-.19s0-.14,0-.18h0Zm2.19,2.35s-.01-.07-.02-.09c0-.02-.02-.04-.03-.04-.01,0-.02-.01-.04-.01-.01,0-.03,0-.05,.01-.02,0-.04,.02-.07,.03-.03,0-.06,.02-.09,.03-.03,0-.07,.01-.12,.01-.13,0-.21-.04-.26-.12-.05-.08-.07-.2-.07-.35v-1.35h.63s.07-.03,.09-.08c.02-.05,.03-.13,.03-.25,0-.06,0-.11,0-.16,0-.04-.01-.08-.02-.1-.01-.02-.02-.04-.04-.05-.02-.01-.03-.02-.06-.02h-.62v-.64s0-.04-.02-.06c-.01-.02-.03-.03-.06-.04-.03-.01-.07-.02-.12-.03-.05,0-.12,0-.2,0s-.14,0-.19,0c-.05,0-.09,.01-.13,.03-.03,.01-.05,.03-.06,.04-.01,.02-.02,.04-.02,.06v.64h-.34s-.04,0-.06,.02c-.02,.01-.03,.03-.04,.05-.01,.02-.02,.06-.02,.1,0,.04,0,.09,0,.16,0,.12,.01,.2,.03,.25,.02,.05,.05,.08,.09,.08h.34v1.47c0,.18,.02,.33,.05,.46,.04,.13,.09,.24,.17,.32,.08,.08,.17,.15,.29,.19,.12,.04,.26,.06,.42,.06,.06,0,.12,0,.18-.01,.06,0,.11-.02,.16-.03,.05-.01,.09-.03,.13-.04,.04-.02,.07-.03,.08-.05,.02-.02,.04-.06,.05-.11,.01-.05,.02-.12,.02-.22,0-.06,0-.11,0-.15h0Zm2.89-3.8s-.04-.08-.07-.1c-.03-.02-.07-.04-.12-.05-.05,0-.11-.01-.18-.01s-.13,0-.18,.01c-.05,0-.09,.02-.13,.05-.03,.02-.06,.06-.07,.1-.02,.04-.02,.1-.02,.18v.5l-.38,.87s-.01,.05-.01,.06c0,.02,0,.03,.03,.04,.02,.01,.04,.02,.08,.02,.03,0,.08,0,.14,0,.05,0,.09,0,.13,0,.03,0,.06-.01,.09-.02,.02,0,.04-.02,.06-.04,.02-.01,.03-.03,.05-.05l.41-.61c.04-.06,.08-.12,.11-.18,.03-.06,.05-.12,.07-.18,.02-.06,.03-.13,.04-.2,0-.07,.01-.14,.01-.22,0-.07,0-.13-.02-.18h0Zm-1.26,0s-.04-.08-.07-.1c-.03-.02-.07-.04-.12-.05-.05,0-.11-.01-.18-.01s-.13,0-.18,.01c-.05,0-.1,.02-.13,.05-.03,.02-.06,.06-.07,.1-.01,.04-.02,.1-.02,.18v.5l-.38,.87s-.02,.05-.01,.06c0,.02,.01,.03,.03,.04,.02,.01,.04,.02,.08,.02,.04,0,.08,0,.14,0,.05,0,.09,0,.12,0,.03,0,.06-.01,.09-.02,.02,0,.05-.02,.06-.04,.02-.01,.03-.03,.04-.05l.41-.61c.04-.06,.08-.12,.11-.18,.03-.06,.05-.12,.07-.18,.02-.06,.03-.13,.04-.2,0-.07,.01-.14,.01-.22,0-.07,0-.13-.02-.18Z"/>
      <path class="cls-2" d="M21.49,20.29s-.01-.07-.02-.09c0-.02-.02-.04-.03-.04-.01,0-.02-.01-.04-.01-.02,0-.03,0-.05,.01-.02,0-.04,.02-.07,.03-.03,0-.06,.02-.09,.03-.03,0-.07,.01-.12,.01-.13,0-.21-.04-.26-.12-.05-.08-.07-.2-.07-.35v-1.35h.63s.07-.03,.09-.08c.02-.05,.03-.13,.03-.25,0-.06,0-.11,0-.16,0-.04-.01-.08-.02-.1-.01-.02-.02-.04-.04-.05-.02-.01-.04-.02-.06-.02h-.62v-.64s0-.04-.02-.06c-.01-.02-.03-.03-.06-.04-.03-.01-.07-.02-.12-.03-.05,0-.12,0-.2,0s-.14,0-.19,0c-.05,0-.09,.01-.13,.03-.03,.01-.05,.03-.06,.04-.01,.02-.02,.04-.02,.06v.64h-.34s-.04,0-.06,.02c-.02,.01-.03,.03-.04,.05-.01,.02-.02,.06-.02,.1,0,.04,0,.1,0,.16,0,.12,.01,.2,.03,.25,.02,.05,.05,.08,.09,.08h.34v1.47c0,.18,.02,.33,.05,.46,.04,.13,.09,.24,.17,.32,.08,.08,.17,.15,.29,.19,.12,.04,.26,.06,.42,.06,.06,0,.12,0,.18,0,.06,0,.11-.02,.16-.03,.05-.01,.09-.03,.13-.04,.04-.02,.07-.03,.09-.05,.02-.02,.03-.06,.05-.11,.01-.05,.02-.12,.02-.22,0-.06,0-.11,0-.15h0Zm3.33-1.33c0-.21-.02-.39-.05-.54-.04-.15-.1-.28-.18-.39-.08-.11-.19-.2-.32-.26-.13-.06-.3-.1-.49-.1-.16,0-.31,.03-.45,.1-.14,.07-.29,.17-.43,.31v-1.59s0-.04-.02-.06c-.01-.02-.03-.03-.07-.04-.03-.01-.07-.02-.12-.03-.05,0-.12,0-.2,0s-.14,0-.2,0c-.05,0-.09,.02-.12,.03-.03,.01-.05,.03-.07,.04-.01,.02-.02,.04-.02,.06v4.23s0,.04,.02,.06c.01,.02,.03,.03,.07,.04,.03,.01,.07,.02,.12,.02,.05,0,.12,0,.2,0s.14,0,.2,0c.05,0,.09-.01,.12-.02,.03-.01,.05-.02,.07-.04,.01-.02,.02-.03,.02-.06v-1.91c.11-.14,.22-.25,.33-.33,.11-.08,.21-.11,.31-.11,.08,0,.15,.02,.21,.05,.06,.03,.11,.07,.15,.13,.04,.06,.07,.13,.09,.2,.02,.08,.03,.19,.03,.33v1.64s0,.04,.02,.06c.01,.02,.03,.03,.06,.04,.03,.01,.07,.02,.12,.02,.05,0,.12,0,.2,0s.14,0,.19,0c.05,0,.09-.01,.12-.02,.03-.01,.05-.02,.06-.04,.01-.02,.02-.03,.02-.06v-1.76h0Zm3.44,.11c0-.2-.03-.39-.08-.56-.05-.17-.13-.32-.24-.45-.11-.13-.25-.22-.42-.29-.17-.07-.38-.11-.62-.11-.23,0-.43,.04-.61,.11-.18,.08-.33,.18-.46,.33-.13,.14-.22,.32-.29,.52-.07,.21-.1,.43-.1,.69,0,.27,.03,.5,.09,.7,.06,.2,.16,.36,.29,.5,.13,.13,.29,.23,.48,.29,.19,.06,.41,.1,.67,.1,.14,0,.27,0,.4-.03,.12-.02,.23-.04,.33-.06,.1-.03,.18-.05,.24-.08,.06-.03,.1-.05,.11-.06,.01-.01,.03-.03,.03-.05,0-.02,.02-.04,.02-.06,0-.02,0-.05,.01-.09,0-.03,0-.07,0-.12,0-.05,0-.1,0-.13,0-.04,0-.06-.02-.08,0-.02-.02-.03-.03-.04-.01,0-.03-.01-.05-.01-.03,0-.07,.01-.13,.03-.05,.02-.12,.04-.19,.07-.08,.02-.17,.05-.28,.07-.11,.02-.23,.03-.37,.03s-.26-.02-.36-.05c-.1-.04-.18-.09-.24-.16-.06-.07-.11-.15-.14-.25-.03-.1-.04-.21-.04-.33h1.75c.08,0,.14-.02,.18-.07,.04-.05,.07-.12,.07-.22v-.13h0Zm-1.99-.1c0-.1,.02-.2,.05-.28,.03-.09,.07-.17,.12-.23,.05-.07,.11-.12,.19-.16,.08-.04,.17-.06,.27-.06,.2,0,.35,.06,.45,.19,.1,.13,.14,.31,.14,.54h-1.21Zm6.98-2.48s0-.04-.02-.06c-.01-.02-.03-.03-.06-.04-.03-.01-.07-.02-.12-.03-.05,0-.12,0-.19,0-.09,0-.16,0-.21,.01-.05,0-.09,.02-.12,.03-.03,.01-.04,.03-.05,.04,0,.02-.02,.03-.02,.05,0-.02-.02-.04-.03-.05-.02-.01-.04-.02-.06-.03-.03,0-.06-.02-.11-.03-.04,0-.1-.02-.16-.03-.06,0-.13-.01-.19-.02-.07,0-.13,0-.18,0-.2,0-.37,.02-.52,.07-.14,.05-.26,.12-.35,.22-.09,.1-.16,.22-.2,.37-.04,.15-.06,.32-.06,.51v.25h-.36s-.04,0-.06,.02c-.02,.01-.03,.03-.04,.05,0,.02-.02,.06-.02,.1,0,.04,0,.1,0,.16,0,.12,0,.2,.03,.25,.02,.05,.05,.08,.09,.08h.36v2.32s0,.04,.02,.06c.01,.02,.03,.03,.06,.04,.03,.01,.07,.02,.13,.02,.05,0,.12,0,.19,0s.15,0,.2,0c.05,0,.09-.01,.12-.02,.03-.01,.05-.02,.06-.04,.01-.02,.02-.03,.02-.06v-2.32h.48s.07-.03,.09-.08c.02-.05,.03-.13,.03-.25,0-.06,0-.11,0-.16,0-.04-.01-.08-.02-.1-.01-.02-.02-.04-.04-.05-.02-.01-.03-.02-.06-.02h-.48v-.26c0-.09,0-.16,.02-.23,.02-.06,.04-.12,.08-.16,.04-.04,.09-.07,.15-.09,.06-.02,.14-.03,.24-.03,.05,0,.09,0,.14,0,.05,0,.09,0,.14,.02,.05,0,.09,.02,.13,.02,.04,0,.07,.01,.09,.01,.02,0,.03,0,.04-.01,.01,0,.02-.02,.03-.03v3.72s0,.04,.02,.06c.01,.02,.03,.03,.06,.04,.03,.01,.07,.02,.12,.02,.05,0,.12,0,.2,0s.14,0,.19,0c.05,0,.09-.01,.12-.02,.03-.01,.05-.02,.06-.04,.01-.02,.02-.03,.02-.06v-4.23h0Zm3.53,1.36s0-.04-.02-.06c-.01-.02-.03-.03-.06-.04-.03-.01-.07-.02-.12-.02-.05,0-.12,0-.2,0s-.14,0-.2,0c-.05,0-.09,.01-.12,.02-.03,.01-.05,.02-.06,.04-.01,.02-.02,.04-.02,.06v1.91c-.12,.14-.23,.25-.33,.33-.1,.07-.21,.11-.31,.11-.08,0-.15-.02-.21-.05-.06-.03-.11-.07-.15-.13-.04-.06-.07-.12-.09-.2-.02-.08-.03-.19-.03-.34v-1.62s0-.04-.02-.06c-.01-.02-.04-.03-.07-.04-.03-.01-.07-.02-.12-.02-.05,0-.12,0-.2,0s-.14,0-.19,0c-.05,0-.09,.01-.13,.02-.03,.01-.05,.02-.06,.04-.01,.02-.02,.04-.02,.06v1.76c0,.22,.02,.4,.05,.55,.04,.15,.09,.28,.18,.39,.08,.11,.19,.2,.32,.26,.13,.06,.3,.1,.5,.1,.18,0,.35-.04,.51-.13,.16-.09,.33-.21,.48-.39v.33s0,.04,.02,.06c.01,.02,.03,.03,.05,.04,.03,.01,.06,.02,.1,.02,.04,0,.1,0,.17,0,.07,0,.12,0,.17,0,.04,0,.08-.01,.11-.02,.03-.01,.05-.02,.06-.04,.01-.02,.02-.03,.02-.06v-2.87h0Zm1.62,0s0-.04-.02-.06c-.01-.02-.03-.03-.07-.04-.03-.01-.07-.02-.12-.03-.05,0-.12,0-.2,0s-.14,0-.2,0c-.05,0-.09,.02-.12,.03-.03,.01-.05,.03-.07,.04-.01,.02-.02,.03-.02,.06v2.86s0,.04,.02,.06c.01,.02,.03,.03,.07,.04,.03,.01,.07,.02,.12,.02,.05,0,.12,0,.2,0s.14,0,.2,0c.05,0,.09-.01,.12-.02,.03-.01,.05-.02,.07-.04,.01-.02,.02-.03,.02-.06v-2.86h0Zm-.04-1.3c-.06-.06-.19-.09-.37-.09s-.31,.03-.37,.09c-.07,.06-.1,.18-.1,.34s.03,.26,.1,.32c.06,.06,.19,.09,.37,.09s.3-.03,.37-.09c.07-.06,.1-.17,.1-.34s-.03-.26-.1-.33h0Zm3.56-.05s0-.04-.02-.06c-.01-.02-.03-.03-.06-.04-.03-.01-.07-.02-.12-.03-.05,0-.12-.01-.2-.01s-.14,0-.2,.01c-.05,0-.09,.02-.12,.03-.03,.01-.05,.03-.06,.04-.01,.02-.02,.04-.02,.06v1.55c-.13-.13-.26-.22-.39-.29-.13-.07-.28-.1-.44-.1-.2,0-.38,.04-.54,.12-.16,.08-.29,.19-.39,.33-.11,.14-.18,.32-.24,.52-.05,.2-.08,.43-.08,.69,0,.21,.02,.41,.06,.61,.04,.19,.11,.36,.21,.5,.1,.14,.22,.26,.37,.34,.15,.09,.34,.13,.55,.13,.2,0,.38-.04,.54-.13,.16-.09,.32-.21,.46-.37v.32s0,.04,.02,.06c.01,.02,.03,.03,.06,.04,.03,.01,.06,.02,.1,.02,.04,0,.1,0,.17,0,.06,0,.12,0,.16,0,.04,0,.08-.01,.1-.02,.03-.01,.04-.02,.05-.04,.01-.02,.02-.04,.02-.06v-4.22h0Zm-.8,3.25c-.07,.09-.13,.16-.19,.22-.06,.06-.11,.11-.17,.14-.05,.04-.11,.06-.16,.08-.05,.02-.11,.02-.16,.02-.11,0-.2-.03-.28-.08-.07-.05-.13-.13-.18-.21-.04-.09-.08-.19-.09-.3-.02-.11-.03-.23-.03-.35,0-.11,.01-.22,.03-.33,.02-.11,.06-.21,.1-.29,.05-.09,.11-.16,.18-.21,.08-.05,.17-.08,.27-.08,.12,0,.23,.04,.33,.12,.11,.08,.22,.19,.33,.33v.95Z"/>
      <path class="cls-2" d="M19.3,16.47s.02-.04,.01-.06c0-.02,0-.03-.03-.04-.02-.01-.04-.02-.08-.02-.03,0-.08,0-.14,0-.05,0-.09,0-.13,0-.03,0-.06,.01-.09,.02-.02,0-.04,.02-.06,.04-.02,.01-.03,.03-.05,.05l-.41,.61c-.04,.06-.08,.12-.1,.18-.03,.06-.05,.12-.07,.18-.02,.06-.03,.13-.04,.2,0,.07-.01,.14-.01,.23,0,.07,0,.13,.02,.17,.01,.04,.04,.08,.07,.1,.03,.02,.07,.04,.12,.05,.05,0,.11,.01,.18,.01s.13,0,.18-.01c.05,0,.1-.02,.13-.05,.03-.02,.06-.06,.07-.1,.02-.04,.02-.1,.02-.17v-.5l.38-.88h0Zm-1.26,0s.01-.04,.01-.06,0-.03-.03-.04c-.02-.01-.04-.02-.08-.02-.03,0-.08,0-.13,0-.05,0-.09,0-.13,0-.03,0-.06,.01-.09,.02-.02,0-.05,.02-.06,.04-.02,.01-.03,.03-.05,.05l-.41,.61c-.04,.06-.08,.12-.1,.18-.03,.06-.05,.12-.07,.18-.02,.06-.03,.13-.04,.2,0,.07-.01,.14-.01,.23,0,.07,0,.13,.02,.17,.02,.04,.04,.08,.07,.1,.03,.02,.07,.04,.12,.05,.05,0,.11,.01,.18,.01s.13,0,.18-.01c.05,0,.09-.02,.13-.05,.03-.02,.06-.06,.07-.1,.02-.04,.02-.1,.02-.17v-.5l.38-.88Z"/>
      <path class="cls-2" d="M17.01,13.91V5.12h2.27c.54,0,1.02,.12,1.42,.37,.4,.25,.6,.64,.6,1.19v1.22c0,.62-.38,1.05-1.13,1.31,.79,.2,1.19,.62,1.19,1.27v1.7c0,.58-.19,1.02-.57,1.3-.38,.29-.83,.43-1.35,.43h-2.43Zm2.47-5.7v-1.5c0-.31-.18-.46-.54-.46v2.43c.36,0,.54-.16,.54-.47h0Zm0,4.11v-2.23c0-.31-.18-.46-.54-.46v3.15c.36,0,.54-.16,.54-.47Z"/>
      <path class="cls-2" d="M25.88,13.91h-1.54v-.28c-.13,.25-.51,.37-1.12,.37-.95,0-1.43-.37-1.43-1.12v-1.43c0-.32,.12-.6,.35-.83,.23-.24,.7-.53,1.4-.89,.4-.2,.61-.37,.61-.49v-1.05c0-.23-.1-.35-.3-.35-.23,0-.34,.28-.34,.85,0,.1,0,.25,.02,.45,.02,.2,.02,.35,.02,.45h-1.69v-1.42c0-.96,.69-1.44,2.08-1.44,1.3,0,1.95,.5,1.95,1.5v5.67h0Zm-1.75-1.33v-1.83c-.4,.1-.6,.28-.6,.54v1.29c0,.22,.1,.32,.31,.32,.19,0,.29-.11,.29-.32Z"/>
      <path class="cls-2" d="M26.28,11.04h1.75v1.51c0,.24,.1,.36,.29,.36s.29-.23,.29-.69c0-.6-.12-.99-.36-1.17-.91-.48-1.46-.81-1.65-1-.19-.19-.28-.48-.28-.86v-.96c0-1,.68-1.5,2.04-1.5s1.98,.48,1.98,1.44v1.4h-1.7l.04-.85c0-.59-.11-.89-.33-.89s-.33,.19-.33,.56,.05,.67,.14,.87c.1,.2,.63,.53,1.6,1.01,.41,.29,.61,.67,.61,1.15v1.07c0,1-.69,1.5-2.07,1.5s-2.03-.48-2.03-1.44v-1.52Z"/>
      <path class="cls-2" d="M30.73,11.04h1.75v1.51c0,.24,.1,.36,.29,.36s.29-.23,.29-.69c0-.6-.12-.99-.36-1.17-.91-.48-1.46-.81-1.65-1-.19-.19-.28-.48-.28-.86v-.96c0-1,.68-1.5,2.04-1.5s1.98,.48,1.98,1.44v1.4h-1.7l.04-.85c0-.59-.11-.89-.33-.89s-.33,.19-.33,.56,.05,.67,.14,.87c.1,.2,.63,.53,1.6,1.01,.41,.29,.61,.67,.61,1.15v1.07c0,1-.69,1.5-2.07,1.5s-2.03-.48-2.03-1.44v-1.52Z"/>
      <rect class="cls-1" x="37.41" y="5.12" width="1.93" height="8.79"/>
      <path class="cls-2" d="M43.8,13.91h-1.75v-5.72c0-.22-.1-.32-.3-.32s-.3,.1-.3,.31v5.73h-1.75V6.79h1.75v.24c.23-.19,.59-.29,1.08-.29,.32,0,.61,.09,.87,.26,.27,.17,.4,.42,.4,.75v6.16Z"/>
      <path class="cls-2" d="M44.17,11.04h1.75v1.51c0,.24,.1,.36,.29,.36s.29-.23,.29-.69c0-.6-.12-.99-.36-1.17-.91-.48-1.46-.81-1.65-1-.19-.19-.28-.48-.28-.86v-.96c0-1,.68-1.5,2.04-1.5s1.98,.48,1.98,1.44v1.4h-1.7l.04-.85c0-.59-.11-.89-.33-.89s-.33,.19-.33,.56,.05,.67,.14,.87c.1,.2,.63,.53,1.6,1.01,.41,.29,.61,.67,.61,1.15v1.07c0,1-.69,1.5-2.07,1.5s-2.03-.48-2.03-1.44v-1.52Z"/>
      <path class="cls-2" d="M52.09,13.91h-1.1c-.79,0-1.26-.12-1.42-.36-.16-.24-.23-.69-.23-1.37V7.84h-.78v-1.05h.78v-1.43h1.75v1.43h.94v1.05h-.94v4.33c0,.21,.06,.35,.19,.42,.13,.07,.4,.11,.82,.11v1.21Z"/>
      <path class="cls-2" d="M56.56,9.74h-1.75v-1.54c0-.22-.1-.33-.3-.33s-.3,.1-.3,.31v5.73h-1.75V6.79h1.75v.24c.23-.19,.59-.29,1.08-.29,.35,0,.65,.09,.9,.28,.25,.19,.37,.43,.37,.73v1.99Z"/>
      <path class="cls-2" d="M60.98,13.91h-1.75v-.24c-.23,.22-.59,.34-1.08,.34-.34,0-.64-.09-.89-.27-.25-.18-.38-.42-.38-.71V6.79h1.75v5.79c0,.22,.1,.32,.31,.32s.3-.1,.3-.31V6.79h1.75v7.12Z"/>
      <path class="cls-2" d="M67.81,13.91h-1.75v-5.69c0-.22-.1-.32-.3-.32s-.3,.1-.3,.31v5.7h-1.75v-5.7c0-.22-.1-.33-.3-.33s-.3,.1-.3,.31v5.72h-1.75V6.79h1.75v.25c.24-.2,.6-.3,1.09-.3,.41,0,.77,.16,1.1,.48,.31-.32,.73-.48,1.26-.48,.3,0,.59,.09,.85,.27,.27,.18,.4,.43,.4,.76v6.14Z"/>
      <path class="cls-2" d="M72.3,10.89h-2.34v1.66c0,.24,.1,.36,.3,.36s.29-.12,.29-.36v-1.43h1.75v1.45c0,.96-.68,1.44-2.05,1.44s-2.04-.5-2.04-1.5v-4.26c0-1,.68-1.5,2.04-1.5s2.05,.48,2.05,1.44v2.71h0Zm-1.75-1.07v-1.63c0-.23-.1-.35-.29-.35s-.3,.12-.3,.35v1.63h.59Z"/>
      <path class="cls-2" d="M76.78,13.91h-1.75v-5.72c0-.22-.1-.32-.3-.32s-.3,.1-.3,.31v5.73h-1.75V6.79h1.75v.24c.23-.19,.59-.29,1.08-.29,.32,0,.61,.09,.87,.26,.27,.17,.4,.42,.4,.75v6.16Z"/>
      <path class="cls-2" d="M80.62,13.91h-1.1c-.79,0-1.26-.12-1.42-.36-.16-.24-.23-.69-.23-1.37V7.84h-.78v-1.05h.78v-1.43h1.75v1.43h.94v1.05h-.94v4.33c0,.21,.06,.35,.19,.42,.12,.07,.4,.11,.82,.11v1.21Z"/>
      <path class="cls-2" d="M80.94,11.04h1.75v1.51c0,.24,.1,.36,.29,.36s.29-.23,.29-.69c0-.6-.12-.99-.36-1.17-.91-.48-1.46-.81-1.65-1-.19-.19-.28-.48-.28-.86v-.96c0-1,.68-1.5,2.04-1.5s1.98,.48,1.98,1.44v1.4h-1.7l.04-.85c0-.59-.11-.89-.33-.89s-.33,.19-.33,.56,.05,.67,.14,.87c.1,.2,.63,.53,1.6,1.01,.4,.29,.61,.67,.61,1.15v1.07c0,1-.69,1.5-2.07,1.5s-2.03-.48-2.03-1.44v-1.52Z"/>
      <rect class="cls-1" x="16.96" y=".29" width="68.1" height="3.92"/>
    </g>
  </g>
</svg>